HIERARCHY
ROOT Hips
{
    OFFSET   0.000000   0.000000   0.000000
    CHANNELS 6 Xposition Yposition Zposition Zrotation Xrotation Yrotation
    JOINT Chest
    {
        OFFSET   0.000000   8.007230   0.000000
        CHANNELS 3 Zrotation Xrotation Yrotation
        JOINT Chest2
        {
            OFFSET   0.000000  22.077100   0.000000
            CHANNELS 3 Zrotation Xrotation Yrotation
            JOINT Neck
            {
                OFFSET   0.000000  23.255100   0.000000
                CHANNELS 3 Zrotation Xrotation Yrotation
                JOINT Head
                {
                    OFFSET   0.000000  14.370100   1.956600
                    CHANNELS 3 Zrotation Xrotation Yrotation
                    End Site
                    {
                        OFFSET   0.000000  19.566000   0.000000
                    }
                }
            }
            JOINT LeftCollar
            {
                OFFSET   3.911900  19.017000  -0.467063
                CHANNELS 3 Zrotation Xrotation Yrotation
                JOINT LeftShoulder
                {
                    OFFSET  10.383700   0.000000   0.000000
                    CHANNELS 3 Zrotation Xrotation Yrotation
                    JOINT LeftElbow
                    {
                        OFFSET  26.662100   0.001193   0.000980
                        CHANNELS 3 Zrotation Xrotation Yrotation
                        JOINT LeftWrist
                        {
                            OFFSET  28.869000  -0.000059  -0.000082
                            CHANNELS 3 Zrotation Xrotation Yrotation
                            JOINT LeftFinger0
                            {
                                OFFSET   2.044650  -2.323450   3.252850
                                CHANNELS 3 Zrotation Xrotation Yrotation
                                JOINT LeftFinger01
                                {
                                    OFFSET   3.088130   0.000000   0.000000
                                    CHANNELS 3 Zrotation Xrotation Yrotation
                                    JOINT LeftFinger02
                                    {
                                        OFFSET   2.639460   0.000000   0.000000
                                        CHANNELS 3 Zrotation Xrotation Yrotation
                                        End Site
                                        {
                                            OFFSET   2.582190   0.000000   0.000000
                                        }
                                    }
                                }
                            }
                            JOINT LeftFinger1
                            {
                                OFFSET   8.364480   0.000000   3.252850
                                CHANNELS 3 Zrotation Xrotation Yrotation
                                JOINT LeftFinger11
                                {
                                    OFFSET   4.646930   0.000000   0.000000
                                    CHANNELS 3 Zrotation Xrotation Yrotation
                                    JOINT LeftFinger12
                                    {
                                        OFFSET   2.323470   0.000000   0.000000
                                        CHANNELS 3 Zrotation Xrotation Yrotation
                                        End Site
                                        {
                                            OFFSET   2.273050   0.000000   0.000000
                                        }
                                    }
                                }
                            }
                            JOINT LeftFinger2
                            {
                                OFFSET   8.364490   0.000016   1.078090
                                CHANNELS 3 Zrotation Xrotation Yrotation
                                JOINT LeftFinger21
                                {
                                    OFFSET   5.111610   0.000000   0.000000
                                    CHANNELS 3 Zrotation Xrotation Yrotation
                                    JOINT LeftFinger22
                                    {
                                        OFFSET   2.788150   0.000016   0.000000
                                        CHANNELS 3 Zrotation Xrotation Yrotation
                                        End Site
                                        {
                                            OFFSET   2.727660   0.000000   0.000000
                                        }
                                    }
                                }
                            }
                            JOINT LeftFinger3
                            {
                                OFFSET   7.899780   0.000015  -1.078090
                                CHANNELS 3 Zrotation Xrotation Yrotation
                                JOINT LeftFinger31
                                {
                                    OFFSET   4.646930   0.000000   0.000000
                                    CHANNELS 3 Zrotation Xrotation Yrotation
                                    JOINT LeftFinger32
                                    {
                                        OFFSET   2.323470   0.000000   0.000000
                                        CHANNELS 3 Zrotation Xrotation Yrotation
                                        End Site
                                        {
                                            OFFSET   2.273050   0.000000   0.000000
                                        }
                                    }
                                }
                            }
                            JOINT LeftFinger4
                            {
                                OFFSET   7.435090   0.000000  -3.252850
                                CHANNELS 3 Zrotation Xrotation Yrotation
                                JOINT LeftFinger41
                                {
                                    OFFSET   3.717550   0.000000   0.000000
                                    CHANNELS 3 Zrotation Xrotation Yrotation
                                    JOINT LeftFinger42
                                    {
                                        OFFSET   1.858770   0.000000   0.000000
                                        CHANNELS 3 Zrotation Xrotation Yrotation
                                        End Site
                                        {
                                            OFFSET   1.818440   0.000000   0.000000
                                        }
                                    }
                                }
                            }
                        }
                    }
                }
            }
            JOINT RightCollar
            {
                OFFSET  -3.911910  19.017000  -0.467062
                CHANNELS 3 Zrotation Xrotation Yrotation
                JOINT RightShoulder
                {
                    OFFSET -10.383700   0.000014   0.000000
                    CHANNELS 3 Zrotation Xrotation Yrotation
                    JOINT RightElbow
                    {
                        OFFSET -26.662100   0.001225   0.001091
                        CHANNELS 3 Zrotation Xrotation Yrotation
                        JOINT RightWrist
                        {
                            OFFSET -28.869000  -0.000020  -0.000085
                            CHANNELS 3 Zrotation Xrotation Yrotation
                            JOINT RightFinger0
                            {
                                OFFSET  -2.044650  -2.323490   3.252850
                                CHANNELS 3 Zrotation Xrotation Yrotation
                                JOINT RightFinger01
                                {
                                    OFFSET  -3.088130   0.000000   0.000000
                                    CHANNELS 3 Zrotation Xrotation Yrotation
                                    JOINT RightFinger02
                                    {
                                        OFFSET  -2.639460   0.000000   0.000000
                                        CHANNELS 3 Zrotation Xrotation Yrotation
                                        End Site
                                        {
                                            OFFSET  -2.582190   0.000000   0.000000
                                        }
                                    }
                                }
                            }
                            JOINT RightFinger1
                            {
                                OFFSET  -8.364480   0.000000   3.252850
                                CHANNELS 3 Zrotation Xrotation Yrotation
                                JOINT RightFinger11
                                {
                                    OFFSET  -4.646930   0.000000   0.000000
                                    CHANNELS 3 Zrotation Xrotation Yrotation
                                    JOINT RightFinger12
                                    {
                                        OFFSET  -2.323470   0.000000   0.000000
                                        CHANNELS 3 Zrotation Xrotation Yrotation
                                        End Site
                                        {
                                            OFFSET  -2.273050   0.000000   0.000000
                                        }
                                    }
                                }
                            }
                            JOINT RightFinger2
                            {
                                OFFSET  -8.364480   0.000000   1.078090
                                CHANNELS 3 Zrotation Xrotation Yrotation
                                JOINT RightFinger21
                                {
                                    OFFSET  -5.111620   0.000000   0.000000
                                    CHANNELS 3 Zrotation Xrotation Yrotation
                                    JOINT RightFinger22
                                    {
                                        OFFSET  -2.788160   0.000000   0.000000
                                        CHANNELS 3 Zrotation Xrotation Yrotation
                                        End Site
                                        {
                                            OFFSET  -2.727660   0.000000   0.000000
                                        }
                                    }
                                }
                            }
                            JOINT RightFinger3
                            {
                                OFFSET  -7.899780   0.000000  -1.078090
                                CHANNELS 3 Zrotation Xrotation Yrotation
                                JOINT RightFinger31
                                {
                                    OFFSET  -4.646930   0.000000   0.000000
                                    CHANNELS 3 Zrotation Xrotation Yrotation
                                    JOINT RightFinger32
                                    {
                                        OFFSET  -2.323470   0.000000   0.000000
                                        CHANNELS 3 Zrotation Xrotation Yrotation
                                        End Site
                                        {
                                            OFFSET  -2.273050   0.000000   0.000000
                                        }
                                    }
                                }
                            }
                            JOINT RightFinger4
                            {
                                OFFSET  -7.435090   0.000000  -3.252850
                                CHANNELS 3 Zrotation Xrotation Yrotation
                                JOINT RightFinger41
                                {
                                    OFFSET  -3.717550   0.000000   0.000000
                                    CHANNELS 3 Zrotation Xrotation Yrotation
                                    JOINT RightFinger42
                                    {
                                        OFFSET  -1.858760   0.000000   0.000000
                                        CHANNELS 3 Zrotation Xrotation Yrotation
                                        End Site
                                        {
                                            OFFSET  -1.818440   0.000000   0.000000
                                        }
                                    }
                                }
                            }
                        }
                    }
                }
            }
        }
    }
    JOINT LeftHip
    {
        OFFSET   9.783030   0.000000   0.000000
        CHANNELS 3 Zrotation Xrotation Yrotation
        JOINT LeftKnee
        {
            OFFSET   0.000063 -41.789100   0.000608
            CHANNELS 3 Zrotation Xrotation Yrotation
            JOINT LeftAnkle
            {
                OFFSET   0.000048 -41.133200  -0.000184
                CHANNELS 3 Zrotation Xrotation Yrotation
                JOINT LeftToe
                {
                    OFFSET   0.000000  -6.358960  14.674500
                    CHANNELS 3 Zrotation Xrotation Yrotation
                    End Site
                    {
                        OFFSET   0.000000   0.000000   3.913200
                    }
                }
            }
        }
    }
    JOINT RightHip
    {
        OFFSET  -9.783030   0.000000   0.000000
        CHANNELS 3 Zrotation Xrotation Yrotation
        JOINT RightKnee
        {
            OFFSET   0.000071 -41.789100   0.001239
            CHANNELS 3 Zrotation Xrotation Yrotation
            JOINT RightAnkle
            {
                OFFSET   0.000037 -41.133200  -0.000166
                CHANNELS 3 Zrotation Xrotation Yrotation
                JOINT RightToe
                {
                    OFFSET   0.000000  -6.358960  14.674500
                    CHANNELS 3 Zrotation Xrotation Yrotation
                    End Site
                    {
                        OFFSET   0.000000   0.000000   3.913200
                    }
                }
            }
        }
    }
}
MOTION
Frames: 4
Frame Time:   0.016667
 -1.759930  89.501100   1.053400  -7.016760 -17.810600  -7.852490   0.987787  10.449300  -0.700616   2.163450  20.883800  -1.629720  -0.847380   3.771550   0.057764  -1.409320   7.643160   9.879380  -5.170680  -2.299530  -0.341887 -57.495900  28.774300 -43.953000  14.978400 -14.071700 -67.108700  67.036600 -75.322400  66.507600  44.794700  24.574300 -55.863500 -12.696700  -0.001919  -0.000453  -1.348370  -0.000106  -0.000611  -5.541960  -0.838223   8.547370  -4.585750   0.000000  -0.003664  -3.210020   0.001023  -0.005151  -7.185810  -1.085290   8.519850  -7.266900   0.001384  -0.002875  -4.839750   0.003785  -0.002170 -10.676000  -2.513240  13.094400 -10.964500  -0.001636  -0.002920  -7.302350  -0.000524  -0.003492 -13.628500  -3.870350  15.542900 -21.236200   0.006155  -0.004565 -14.143300  -0.001697   0.003382   5.574100  -2.133890  10.691400  41.945300  13.808000  50.649900 -37.179000 -23.944500  70.118300  45.638300  26.688400 -13.556800 -36.773500  37.819600  77.929500  39.222200   0.020945  -0.017034  14.380900   0.018570  -0.002349  54.145400  11.089300   7.864030  44.919800   0.030288  -0.058572  33.689700   0.002520  -0.049194  63.822900  -2.003860  -1.053470  63.846100   0.017955  -0.075165  47.884500  -0.031968  -0.048050  74.267500  -4.520300  -1.318970  74.296300  -0.019620  -0.085342  55.722200  -0.060582  -0.024802  88.741800  -9.918740  -0.276328 110.000000  -0.005222   0.006161  80.000000  -0.004810  -0.006835   4.816280  22.128500   5.071250   1.311270   0.040824   8.986250  -2.081680  -4.514380   3.390650   0.000000   0.000000   0.000000   5.835850  18.919400  -7.660660  -0.875170   3.230460  -6.626100  -0.836602  -4.432270   2.567240   0.000000   0.000000   0.000000
 -1.761330  89.495000   1.049380  -7.026070 -17.830800  -7.885030   0.997206  10.454000  -0.783684   2.196190  20.891600  -1.801920  -0.855293   3.772360   0.057401  -1.421900   7.644630   9.885720  -5.165830  -2.231120  -0.314206 -57.479200  28.721500 -43.979000  14.989700 -14.162400 -67.050900  67.172900 -75.332300  66.628300  44.841100  24.599200 -55.824400 -12.694300  -0.001934  -0.000417  -1.347720  -0.000105  -0.000590  -5.522950  -0.838611   8.575170  -4.570400   0.000000  -0.003628  -3.199280   0.001034  -0.005152  -7.171540  -1.086320   8.547620  -7.252910   0.001409  -0.002845  -4.830440   0.003788  -0.002153 -10.665300  -2.516930  13.131800 -10.954700  -0.001661  -0.002890  -7.295820  -0.000535  -0.003495 -13.597300  -3.869330  15.592900 -21.191100   0.006205  -0.004552 -14.113300  -0.001720   0.003344   5.557180  -2.017330  10.696000  41.828900  14.116600  50.312700 -36.708500 -24.534700  70.215500  42.759700  24.093100  -8.951880 -36.139400  37.631100  77.142600  40.091000   0.029847  -0.025425  14.954600   0.028502  -0.002230  52.235400  11.152200   8.516780  43.418300   0.016317  -0.029386  32.564400   0.001882  -0.024761  62.090900  -2.137630  -1.167170  62.112900   0.015783  -0.042458  46.584700  -0.015251  -0.029976  72.516700  -4.019050  -1.273230  72.550100  -0.006212  -0.051517  54.412600  -0.034032  -0.019467  86.689800  -9.921410  -0.602826 110.000000  -0.005174   0.006249  80.000000  -0.004853  -0.006907   4.826940  22.129200   5.092930   1.298320   0.067649   9.004560  -2.086320  -4.515490   3.379730  -0.000000   0.000000   0.000000   5.855820  18.924900  -7.606420  -0.905458   3.246760  -6.635720  -0.832154  -4.431030   2.567030   0.000000   0.000000   0.000000
 -1.764960  89.489600   1.035920  -7.054250 -17.863900  -7.965100   1.009290  10.467500  -0.853652   2.237750  20.916800  -1.948510  -0.868586   3.778000   0.057101  -1.444600   7.655910   9.886880  -5.164580  -2.199050  -0.298798 -57.451400  28.692700 -44.035000  15.016600 -14.280700 -66.909000  67.440200 -75.337500  66.886200  44.881600  24.621100 -55.790800 -12.694000  -0.001949  -0.000381  -1.347630  -0.000105  -0.000569  -5.510980  -0.839069   8.598370  -4.560790   0.000000  -0.003590  -3.192550   0.001050  -0.005152  -7.161470  -1.087400   8.570720  -7.243140   0.001436  -0.002820  -4.823930   0.003790  -0.002133 -10.657200  -2.523520  13.169000 -10.948600  -0.001685  -0.002862  -7.291750  -0.000549  -0.003496 -13.568800  -3.868520  15.631100 -21.149300   0.006256  -0.004538 -14.085500  -0.001743   0.003306   5.566180  -1.970510  10.710600  41.680300  14.546500  49.995000 -36.570900 -24.841400  70.218900  39.050100  21.917300  -5.081820 -35.453600  37.618800  76.266800  41.551300   0.035280  -0.031193  16.038600   0.034097  -0.002190  50.215900  11.171300   9.174480  41.823200   0.002346  -0.000199  31.368900   0.001245  -0.000329  60.254600  -2.255880  -1.285210  60.276800   0.012609  -0.009750  45.207600   0.001465  -0.011903  70.579200  -3.349040  -1.161450  70.610200   0.006999  -0.017692  52.957700  -0.007481  -0.012213  84.422800  -9.923650  -0.966661 110.000000  -0.005125   0.006337  80.000000  -0.004896  -0.006979   4.837240  22.138700   5.106360   1.286080   0.094464   9.048390  -2.089210  -4.516560   3.378180  -0.000000   0.000000   0.000000   5.876220  18.934300  -7.554070  -0.934878   3.262410  -6.640300  -0.829848  -4.427980   2.566990  -0.000000   0.000000  -0.000000
 -1.770590  89.487100   1.010830  -7.094740 -17.890600  -8.082050   1.027060  10.491100  -0.903568   2.288280  20.962400  -2.056240  -0.882137   3.796100   0.056825  -1.469140   7.692250   9.837350  -5.177090  -2.202330  -0.304489 -57.406700  28.703800 -44.129300  15.056500 -14.381600 -66.731100  67.770300 -75.313500  67.226000  44.895100  24.606300 -55.742500 -12.696200  -0.001971  -0.000389  -1.348640  -0.000103  -0.000548  -5.517230  -0.839400   8.601980  -4.565900   0.000000  -0.003547  -3.196130   0.001058  -0.005155  -7.168320  -1.088010   8.574200  -7.250010   0.001471  -0.002806  -4.828500   0.003787  -0.002109 -10.663800  -2.528830  13.188000 -10.956500  -0.001710  -0.002840  -7.297060  -0.000570  -0.003494 -13.556000  -3.868170  15.634600 -21.130200   0.006311  -0.004521 -14.072700  -0.001772   0.003276   5.603450  -2.000160  10.735500  41.827900  14.887200  49.559100 -36.690900 -24.644300  70.447000  33.677100  20.971000  -2.752940 -35.875400  39.393900  77.048700  42.819900   0.029445  -0.026605  17.281600   0.029086  -0.002114  48.554000  11.182200   9.672440  40.491200   0.011304  -0.010580  30.370000   0.004726  -0.010363  58.823700  -2.355090  -1.426470  58.852100   0.010772  -0.015087  44.139100  -0.002137  -0.013842  69.068800  -2.374940  -0.941543  69.066700  -0.001241  -0.023336  51.800100  -0.014383  -0.009873  82.573600  -9.905200  -1.290970 110.000000  -0.005076   0.006422  80.000000  -0.004948  -0.007056   4.837100  22.190600   5.111620   1.282430   0.048351   9.109080  -2.081870  -4.488970   3.409450   0.000000   0.000000   0.000000   5.892650  18.946200  -7.521640  -0.959445   3.269540  -6.622920  -0.826976  -4.416500   2.611220  -0.000000   0.000000  -0.000000
